<?xml version="1.0" encoding="UTF-8"?>
<svg xmlns="http://www.w3.org/2000/svg" fill="none" xmlns:xlink="http://www.w3.org/1999/xlink" width="20px" height="20px" viewBox="0 0 20 20" version="1.1">
<g id="surface1">
<path style=" stroke:none;fill-rule:nonzero;fill:rgba(51, 51, 51,1);fill-opacity:1;" d="M 8.75 17.023438 L 8.75 2.972656 C 8.75 2.710938 8.539062 2.5 8.273438 2.5 L 5.476562 2.5 C 5.210938 2.5 5 2.710938 5 2.972656 L 5 17.023438 C 5 17.285156 5.210938 17.5 5.476562 17.5 L 8.273438 17.5 C 8.539062 17.5 8.75 17.289062 8.75 17.023438 Z M 8.75 17.023438 "/>
<path style=" stroke:none;fill-rule:nonzero;fill:rgba(51, 51, 51,1);fill-opacity:1;" d="M 14.523438 2.5 L 11.726562 2.5 C 11.464844 2.5 11.25 2.710938 11.25 2.972656 L 11.25 17.023438 C 11.25 17.285156 11.460938 17.5 11.726562 17.5 L 14.523438 17.5 C 14.785156 17.5 15 17.289062 15 17.023438 L 15 2.972656 C 15 2.710938 14.789062 2.5 14.523438 2.5 Z M 14.523438 2.5 "/>
</g>
</svg>
